<svg width="300" height="370" viewBox="0 0 300 370" fill="none" xmlns="http://www.w3.org/2000/svg">
<g clip-path="url(#clip0_1_16)">
<mask id="path-1-inside-1_1_16" fill="white">
<path d="M0 30.7676H300V350C300 361.046 291.046 370 280 370H20C8.9543 370 0 361.046 0 350V30.7676Z"/>
</mask>
<path d="M0 30.7676H300V350C300 361.046 291.046 370 280 370H20C8.9543 370 0 361.046 0 350V30.7676Z" fill="#BD9FE6"/>
<path d="M0 27.7676H300V33.7676H0V27.7676ZM300 370H0H300ZM0 370V30.7676V370ZM300 30.7676V370V30.7676Z" fill="#323232" mask="url(#path-1-inside-1_1_16)"/>
<path d="M0 20C0 8.9543 8.95431 0 20 0H280C291.046 0 300 8.9543 300 20V31.5565H0V20Z" fill="#F9AAC5"/>
<path d="M80.2592 13.6385H78.5973C78.5334 13.2834 78.4144 12.9709 78.2404 12.701C78.0664 12.4311 77.8533 12.2021 77.6012 12.0138C77.3491 11.8256 77.0668 11.6836 76.7543 11.5877C76.4453 11.4918 76.1168 11.4439 75.7688 11.4439C75.1403 11.4439 74.5774 11.6019 74.0803 11.918C73.5866 12.234 73.196 12.6974 72.9084 13.3082C72.6243 13.919 72.4822 14.6648 72.4822 15.5455C72.4822 16.4332 72.6243 17.1825 72.9084 17.7933C73.196 18.4041 73.5884 18.8658 74.0856 19.1783C74.5827 19.4908 75.142 19.647 75.7635 19.647C76.108 19.647 76.4347 19.6009 76.7436 19.5085C77.0561 19.4126 77.3384 19.2724 77.5906 19.0877C77.8427 18.9031 78.0558 18.6776 78.2298 18.4112C78.4073 18.1413 78.5298 17.8324 78.5973 17.4844L80.2592 17.4897C80.1705 18.0259 79.9982 18.5195 79.7425 18.9705C79.4904 19.418 79.1655 19.805 78.7678 20.1317C78.3736 20.4549 77.9226 20.7053 77.4148 20.8828C76.907 21.0604 76.353 21.1491 75.7528 21.1491C74.8082 21.1491 73.9666 20.9254 73.228 20.478C72.4893 20.027 71.907 19.3825 71.4808 18.5444C71.0582 17.7063 70.8469 16.7067 70.8469 15.5455C70.8469 14.3807 71.06 13.381 71.4862 12.5465C71.9123 11.7085 72.4947 11.0657 73.2333 10.6183C73.9719 10.1673 74.8118 9.94176 75.7528 9.94176C76.3317 9.94176 76.8714 10.0252 77.3722 10.1921C77.8764 10.3555 78.3292 10.5969 78.7305 10.9165C79.1317 11.2326 79.4638 11.6197 79.7266 12.0778C79.9893 12.5323 80.1669 13.0526 80.2592 13.6385ZM84.482 21.1811C83.9635 21.1811 83.4948 21.0852 83.0757 20.8935C82.6567 20.6982 82.3247 20.4158 82.0796 20.0465C81.8382 19.6772 81.7174 19.2244 81.7174 18.6882C81.7174 18.2266 81.8062 17.8466 81.9838 17.5483C82.1613 17.25 82.401 17.0138 82.7029 16.8398C83.0047 16.6658 83.3421 16.5344 83.7149 16.4457C84.0878 16.3569 84.4678 16.2894 84.8548 16.2433C85.3449 16.1864 85.7426 16.1403 86.048 16.1048C86.3534 16.0657 86.5754 16.0036 86.7139 15.9183C86.8524 15.8331 86.9216 15.6946 86.9216 15.5028V15.4656C86.9216 15.0004 86.7902 14.6399 86.5274 14.3842C86.2682 14.1286 85.8811 14.0007 85.3662 14.0007C84.83 14.0007 84.4074 14.1197 84.0985 14.3576C83.7931 14.592 83.5818 14.853 83.4646 15.1406L81.9678 14.7997C82.1453 14.3026 82.4046 13.9013 82.7455 13.5959C83.0899 13.2869 83.4859 13.0632 83.9333 12.9247C84.3808 12.7827 84.8513 12.7116 85.3449 12.7116C85.6716 12.7116 86.0178 12.7507 86.3836 12.8288C86.7529 12.9034 87.0974 13.0419 87.417 13.2443C87.7401 13.4467 88.0047 13.7362 88.2107 14.1126C88.4166 14.4854 88.5196 14.9702 88.5196 15.5668V21H86.9642V19.8814H86.9003C86.7973 20.0874 86.6428 20.2898 86.4369 20.4886C86.2309 20.6875 85.9664 20.8526 85.6432 20.984C85.32 21.1154 84.933 21.1811 84.482 21.1811ZM84.8282 19.9027C85.2686 19.9027 85.645 19.8157 85.9575 19.6417C86.2735 19.4677 86.5132 19.2404 86.6766 18.9599C86.8435 18.6758 86.9269 18.3722 86.9269 18.049V16.9943C86.8701 17.0511 86.76 17.1044 86.5967 17.1541C86.4369 17.2003 86.254 17.2411 86.048 17.2766C85.8421 17.3086 85.6414 17.3388 85.4461 17.3672C85.2508 17.392 85.0874 17.4134 84.9561 17.4311C84.6471 17.4702 84.3648 17.5359 84.1091 17.6282C83.857 17.7205 83.6546 17.8537 83.5019 18.0277C83.3527 18.1982 83.2781 18.4254 83.2781 18.7095C83.2781 19.1037 83.4237 19.402 83.7149 19.6044C84.0061 19.8033 84.3772 19.9027 84.8282 19.9027ZM92.2337 10.0909V21H90.641V10.0909H92.2337ZM97.8227 21.1651C97.0308 21.1651 96.349 20.9858 95.7773 20.6271C95.2091 20.2649 94.7723 19.766 94.4669 19.1303C94.1615 18.4947 94.0088 17.7667 94.0088 16.9464C94.0088 16.1154 94.165 15.3821 94.4775 14.7464C94.79 14.1072 95.2304 13.6083 95.7986 13.2496C96.3667 12.891 97.0361 12.7116 97.8067 12.7116C98.4282 12.7116 98.9822 12.8271 99.4687 13.0579C99.9552 13.2852 100.348 13.6048 100.646 14.0167C100.948 14.4286 101.127 14.9098 101.184 15.4602H99.6338C99.5486 15.0767 99.3532 14.7464 99.0479 14.4695C98.746 14.1925 98.3412 14.054 97.8334 14.054C97.3895 14.054 97.0006 14.1712 96.6668 14.4055C96.3366 14.6364 96.0791 14.9666 95.8944 15.3963C95.7098 15.8224 95.6175 16.3267 95.6175 16.9091C95.6175 17.5057 95.708 18.0206 95.8891 18.4538C96.0702 18.8871 96.3259 19.2227 96.6562 19.4606C96.99 19.6985 97.3824 19.8175 97.8334 19.8175C98.1352 19.8175 98.4086 19.7624 98.6537 19.6523C98.9023 19.5387 99.11 19.3771 99.2769 19.1676C99.4474 18.9581 99.5663 18.706 99.6338 18.4112H101.184C101.127 18.9403 100.955 19.4126 100.667 19.8281C100.38 20.2436 99.9942 20.5703 99.5113 20.8082C99.0319 21.0462 98.469 21.1651 97.8227 21.1651ZM108.07 17.6069V12.8182H109.668V21H108.102V19.5831H108.017C107.828 20.0199 107.527 20.3839 107.111 20.6751C106.699 20.9627 106.186 21.1065 105.572 21.1065C105.046 21.1065 104.581 20.9911 104.176 20.7603C103.775 20.5259 103.459 20.1797 103.228 19.7216C103.001 19.2635 102.887 18.6971 102.887 18.0224V12.8182H104.48V17.8306C104.48 18.3881 104.634 18.832 104.943 19.1623C105.252 19.4925 105.653 19.6577 106.147 19.6577C106.445 19.6577 106.742 19.5831 107.037 19.4339C107.335 19.2848 107.582 19.0593 107.777 18.7575C107.976 18.4556 108.074 18.0721 108.07 17.6069ZM113.401 10.0909V21H111.808V10.0909H113.401ZM117.924 21.1811C117.406 21.1811 116.937 21.0852 116.518 20.8935C116.099 20.6982 115.767 20.4158 115.522 20.0465C115.281 19.6772 115.16 19.2244 115.16 18.6882C115.16 18.2266 115.249 17.8466 115.426 17.5483C115.604 17.25 115.843 17.0138 116.145 16.8398C116.447 16.6658 116.784 16.5344 117.157 16.4457C117.53 16.3569 117.91 16.2894 118.297 16.2433C118.787 16.1864 119.185 16.1403 119.49 16.1048C119.796 16.0657 120.018 16.0036 120.156 15.9183C120.295 15.8331 120.364 15.6946 120.364 15.5028V15.4656C120.364 15.0004 120.233 14.6399 119.97 14.3842C119.711 14.1286 119.324 14.0007 118.809 14.0007C118.272 14.0007 117.85 14.1197 117.541 14.3576C117.235 14.592 117.024 14.853 116.907 15.1406L115.41 14.7997C115.588 14.3026 115.847 13.9013 116.188 13.5959C116.532 13.2869 116.928 13.0632 117.376 12.9247C117.823 12.7827 118.294 12.7116 118.787 12.7116C119.114 12.7116 119.46 12.7507 119.826 12.8288C120.195 12.9034 120.54 13.0419 120.859 13.2443C121.183 13.4467 121.447 13.7362 121.653 14.1126C121.859 14.4854 121.962 14.9702 121.962 15.5668V21H120.407V19.8814H120.343C120.24 20.0874 120.085 20.2898 119.879 20.4886C119.673 20.6875 119.409 20.8526 119.086 20.984C118.762 21.1154 118.375 21.1811 117.924 21.1811ZM118.271 19.9027C118.711 19.9027 119.087 19.8157 119.4 19.6417C119.716 19.4677 119.956 19.2404 120.119 18.9599C120.286 18.6758 120.369 18.3722 120.369 18.049V16.9943C120.313 17.0511 120.202 17.1044 120.039 17.1541C119.879 17.2003 119.696 17.2411 119.49 17.2766C119.284 17.3086 119.084 17.3388 118.888 17.3672C118.693 17.392 118.53 17.4134 118.398 17.4311C118.089 17.4702 117.807 17.5359 117.551 17.6282C117.299 17.7205 117.097 17.8537 116.944 18.0277C116.795 18.1982 116.721 18.4254 116.721 18.7095C116.721 19.1037 116.866 19.402 117.157 19.6044C117.449 19.8033 117.82 19.9027 118.271 19.9027ZM127.146 21.1598C126.486 21.1598 125.896 20.9911 125.378 20.6538C124.863 20.3129 124.458 19.8281 124.163 19.1996C123.872 18.5675 123.726 17.8093 123.726 16.9251C123.726 16.0408 123.874 15.2844 124.169 14.6559C124.467 14.0273 124.875 13.5462 125.394 13.2124C125.912 12.8786 126.5 12.7116 127.157 12.7116C127.665 12.7116 128.073 12.7969 128.382 12.9673C128.695 13.1342 128.936 13.3295 129.106 13.5533C129.28 13.777 129.415 13.9741 129.511 14.1445H129.607V10.0909H131.2V21H129.644V19.7269H129.511C129.415 19.9009 129.277 20.0998 129.096 20.3235C128.918 20.5472 128.673 20.7425 128.361 20.9094C128.048 21.0763 127.643 21.1598 127.146 21.1598ZM127.498 19.8015C127.956 19.8015 128.343 19.6808 128.659 19.4393C128.979 19.1942 129.22 18.8551 129.383 18.4219C129.55 17.9886 129.634 17.4844 129.634 16.9091C129.634 16.3409 129.552 15.8437 129.389 15.4176C129.225 14.9915 128.986 14.6594 128.67 14.4215C128.354 14.1836 127.963 14.0646 127.498 14.0646C127.018 14.0646 126.619 14.1889 126.299 14.4375C125.98 14.6861 125.738 15.0252 125.575 15.4549C125.415 15.8846 125.335 16.3693 125.335 16.9091C125.335 17.456 125.417 17.9478 125.58 18.3846C125.744 18.8214 125.985 19.1676 126.305 19.4233C126.628 19.6754 127.025 19.8015 127.498 19.8015ZM136.919 21.1651C136.152 21.1651 135.483 20.9893 134.911 20.6378C134.339 20.2862 133.896 19.7944 133.58 19.1623C133.263 18.5302 133.105 17.7915 133.105 16.9464C133.105 16.0977 133.263 15.3555 133.58 14.7198C133.896 14.0842 134.339 13.5906 134.911 13.239C135.483 12.8874 136.152 12.7116 136.919 12.7116C137.686 12.7116 138.356 12.8874 138.928 13.239C139.499 13.5906 139.943 14.0842 140.259 14.7198C140.575 15.3555 140.733 16.0977 140.733 16.9464C140.733 17.7915 140.575 18.5302 140.259 19.1623C139.943 19.7944 139.499 20.2862 138.928 20.6378C138.356 20.9893 137.686 21.1651 136.919 21.1651ZM136.925 19.8281C137.422 19.8281 137.834 19.6967 138.161 19.4339C138.487 19.1712 138.729 18.8214 138.885 18.3846C139.045 17.9478 139.125 17.4666 139.125 16.9411C139.125 16.419 139.045 15.9396 138.885 15.5028C138.729 15.0625 138.487 14.7092 138.161 14.4428C137.834 14.1765 137.422 14.0433 136.925 14.0433C136.424 14.0433 136.009 14.1765 135.678 14.4428C135.352 14.7092 135.108 15.0625 134.949 15.5028C134.792 15.9396 134.714 16.419 134.714 16.9411C134.714 17.4666 134.792 17.9478 134.949 18.3846C135.108 18.8214 135.352 19.1712 135.678 19.4339C136.009 19.6967 136.424 19.8281 136.925 19.8281ZM142.511 21V12.8182H144.051V14.1179H144.136C144.285 13.6776 144.548 13.3313 144.924 13.0792C145.304 12.8235 145.734 12.6957 146.213 12.6957C146.313 12.6957 146.43 12.6992 146.565 12.7063C146.703 12.7134 146.812 12.7223 146.89 12.733V14.2564C146.826 14.2386 146.712 14.2191 146.549 14.1978C146.385 14.1729 146.222 14.1605 146.059 14.1605C145.682 14.1605 145.347 14.2404 145.052 14.4002C144.761 14.5565 144.53 14.7749 144.359 15.0554C144.189 15.3324 144.104 15.6484 144.104 16.0036V21H142.511ZM150.576 21.1811C150.057 21.1811 149.589 21.0852 149.169 20.8935C148.75 20.6982 148.418 20.4158 148.173 20.0465C147.932 19.6772 147.811 19.2244 147.811 18.6882C147.811 18.2266 147.9 17.8466 148.078 17.5483C148.255 17.25 148.495 17.0138 148.797 16.8398C149.098 16.6658 149.436 16.5344 149.809 16.4457C150.182 16.3569 150.562 16.2894 150.949 16.2433C151.439 16.1864 151.836 16.1403 152.142 16.1048C152.447 16.0657 152.669 16.0036 152.808 15.9183C152.946 15.8331 153.015 15.6946 153.015 15.5028V15.4656C153.015 15.0004 152.884 14.6399 152.621 14.3842C152.362 14.1286 151.975 14.0007 151.46 14.0007C150.924 14.0007 150.501 14.1197 150.192 14.3576C149.887 14.592 149.676 14.853 149.558 15.1406L148.062 14.7997C148.239 14.3026 148.498 13.9013 148.839 13.5959C149.184 13.2869 149.58 13.0632 150.027 12.9247C150.475 12.7827 150.945 12.7116 151.439 12.7116C151.765 12.7116 152.112 12.7507 152.477 12.8288C152.847 12.9034 153.191 13.0419 153.511 13.2443C153.834 13.4467 154.098 13.7362 154.304 14.1126C154.51 14.4854 154.613 14.9702 154.613 15.5668V21H153.058V19.8814H152.994C152.891 20.0874 152.737 20.2898 152.531 20.4886C152.325 20.6875 152.06 20.8526 151.737 20.984C151.414 21.1154 151.027 21.1811 150.576 21.1811ZM150.922 19.9027C151.362 19.9027 151.739 19.8157 152.051 19.6417C152.367 19.4677 152.607 19.2404 152.77 18.9599C152.937 18.6758 153.021 18.3722 153.021 18.049V16.9943C152.964 17.0511 152.854 17.1044 152.69 17.1541C152.531 17.2003 152.348 17.2411 152.142 17.2766C151.936 17.3086 151.735 17.3388 151.54 17.3672C151.345 17.392 151.181 17.4134 151.05 17.4311C150.741 17.4702 150.459 17.5359 150.203 17.6282C149.951 17.7205 149.748 17.8537 149.596 18.0277C149.446 18.1982 149.372 18.4254 149.372 18.7095C149.372 19.1037 149.517 19.402 149.809 19.6044C150.1 19.8033 150.471 19.9027 150.922 19.9027ZM170.309 15.5455C170.309 16.7102 170.095 17.7116 169.669 18.5497C169.243 19.3842 168.659 20.027 167.917 20.478C167.178 20.9254 166.338 21.1491 165.397 21.1491C164.453 21.1491 163.609 20.9254 162.867 20.478C162.128 20.027 161.546 19.3825 161.12 18.5444C160.694 17.7063 160.481 16.7067 160.481 15.5455C160.481 14.3807 160.694 13.381 161.12 12.5465C161.546 11.7085 162.128 11.0657 162.867 10.6183C163.609 10.1673 164.453 9.94176 165.397 9.94176C166.338 9.94176 167.178 10.1673 167.917 10.6183C168.659 11.0657 169.243 11.7085 169.669 12.5465C170.095 13.381 170.309 14.3807 170.309 15.5455ZM168.679 15.5455C168.679 14.6577 168.535 13.9102 168.247 13.3029C167.963 12.6921 167.572 12.2305 167.075 11.918C166.582 11.6019 166.022 11.4439 165.397 11.4439C164.769 11.4439 164.208 11.6019 163.714 11.918C163.22 12.2305 162.83 12.6921 162.542 13.3029C162.258 13.9102 162.116 14.6577 162.116 15.5455C162.116 16.4332 162.258 17.1825 162.542 17.7933C162.83 18.4006 163.22 18.8622 163.714 19.1783C164.208 19.4908 164.769 19.647 165.397 19.647C166.022 19.647 166.582 19.4908 167.075 19.1783C167.572 18.8622 167.963 18.4006 168.247 17.7933C168.535 17.1825 168.679 16.4332 168.679 15.5455ZM173.825 16.142V21H172.233V12.8182H173.762V14.1499H173.863C174.051 13.7166 174.346 13.3686 174.747 13.1058C175.152 12.843 175.661 12.7116 176.276 12.7116C176.833 12.7116 177.322 12.8288 177.741 13.0632C178.16 13.294 178.485 13.6385 178.715 14.0966C178.946 14.5547 179.062 15.1211 179.062 15.7958V21H177.469V15.9876C177.469 15.3945 177.314 14.9311 177.006 14.5973C176.697 14.2599 176.272 14.0913 175.732 14.0913C175.363 14.0913 175.035 14.1712 174.747 14.331C174.463 14.4908 174.237 14.7251 174.07 15.0341C173.907 15.3395 173.825 15.7088 173.825 16.142ZM182.79 10.0909V21H181.198V10.0909H182.79ZM184.933 21V12.8182H186.526V21H184.933ZM185.737 11.5558C185.46 11.5558 185.222 11.4634 185.024 11.2788C184.828 11.0906 184.731 10.8668 184.731 10.6076C184.731 10.3448 184.828 10.1211 185.024 9.93643C185.222 9.74822 185.46 9.65412 185.737 9.65412C186.014 9.65412 186.25 9.74822 186.446 9.93643C186.645 10.1211 186.744 10.3448 186.744 10.6076C186.744 10.8668 186.645 11.0906 186.446 11.2788C186.25 11.4634 186.014 11.5558 185.737 11.5558ZM190.261 16.142V21H188.668V12.8182H190.197V14.1499H190.298C190.487 13.7166 190.781 13.3686 191.183 13.1058C191.587 12.843 192.097 12.7116 192.711 12.7116C193.269 12.7116 193.757 12.8288 194.176 13.0632C194.595 13.294 194.92 13.6385 195.151 14.0966C195.382 14.5547 195.497 15.1211 195.497 15.7958V21H193.904V15.9876C193.904 15.3945 193.75 14.9311 193.441 14.5973C193.132 14.2599 192.708 14.0913 192.168 14.0913C191.799 14.0913 191.47 14.1712 191.183 14.331C190.898 14.4908 190.673 14.7251 190.506 15.0341C190.343 15.3395 190.261 15.7088 190.261 16.142ZM201.159 21.1651C200.353 21.1651 199.659 20.9929 199.077 20.6484C198.498 20.3004 198.05 19.8121 197.734 19.1836C197.422 18.5515 197.266 17.8111 197.266 16.9624C197.266 16.1243 197.422 15.3857 197.734 14.7464C198.05 14.1072 198.491 13.6083 199.055 13.2496C199.624 12.891 200.288 12.7116 201.048 12.7116C201.509 12.7116 201.957 12.788 202.39 12.9407C202.823 13.0934 203.212 13.3331 203.556 13.6598C203.901 13.9865 204.173 14.4109 204.371 14.9329C204.57 15.4513 204.67 16.0817 204.67 16.8239V17.3885H198.166V16.1953H203.109C203.109 15.7763 203.024 15.4052 202.853 15.082C202.683 14.7553 202.443 14.4979 202.134 14.3097C201.829 14.1214 201.47 14.0273 201.058 14.0273C200.611 14.0273 200.22 14.1374 199.886 14.3576C199.556 14.5742 199.3 14.8583 199.119 15.2099C198.942 15.5579 198.853 15.9361 198.853 16.3445V17.2766C198.853 17.8235 198.949 18.2887 199.141 18.6722C199.336 19.0558 199.608 19.3487 199.956 19.5511C200.304 19.75 200.71 19.8494 201.175 19.8494C201.477 19.8494 201.752 19.8068 202.001 19.7216C202.25 19.6328 202.464 19.5014 202.646 19.3274C202.827 19.1534 202.965 18.9386 203.061 18.6829L204.569 18.9545C204.448 19.3984 204.231 19.7873 203.919 20.1211C203.61 20.4513 203.221 20.7088 202.752 20.8935C202.287 21.0746 201.756 21.1651 201.159 21.1651Z" fill="#323232"/>
<path d="M23.75 15.3838C23.75 18.1476 21.6323 20.3006 19.125 20.3006C16.6177 20.3006 14.5 18.1476 14.5 15.3838C14.5 12.62 16.6177 10.4669 19.125 10.4669C21.6323 10.4669 23.75 12.62 23.75 15.3838Z" fill="white" stroke="#323232" stroke-width="2"/>
<path d="M61.25 15.3838C61.25 18.1476 59.1323 20.3006 56.625 20.3006C54.1177 20.3006 52 18.1476 52 15.3838C52 12.62 54.1177 10.4669 56.625 10.4669C59.1323 10.4669 61.25 12.62 61.25 15.3838Z" fill="white" stroke="#323232" stroke-width="2"/>
<path d="M42.5 15.3838C42.5 18.1476 40.3823 20.3006 37.875 20.3006C35.3677 20.3006 33.25 18.1476 33.25 15.3838C33.25 12.62 35.3677 10.4669 37.875 10.4669C40.3823 10.4669 42.5 12.62 42.5 15.3838Z" fill="white" stroke="#323232" stroke-width="2"/>
</g>
<defs>
<clipPath id="clip0_1_16">
<rect width="300" height="370" fill="white"/>
</clipPath>
</defs>
</svg>
